<?xml version="1.0" encoding="UTF-8" standalone="no"?>
<!-- Generator: Adobe Illustrator 18.1.0, SVG Export Plug-In . SVG Version: 6.00 Build 0)  -->

<svg
   xmlns:dc="http://purl.org/dc/elements/1.1/"
   xmlns:cc="http://creativecommons.org/ns#"
   xmlns:rdf="http://www.w3.org/1999/02/22-rdf-syntax-ns#"
   xmlns:svg="http://www.w3.org/2000/svg"
   xmlns="http://www.w3.org/2000/svg"
   xmlns:sodipodi="http://sodipodi.sourceforge.net/DTD/sodipodi-0.dtd"
   xmlns:inkscape="http://www.inkscape.org/namespaces/inkscape"
   version="1.1"
   id="Layer_1"
   x="0px"
   y="0px"
   viewBox="0 0 1500 1500"
   enable-background="new 0 0 1500 1500"
   xml:space="preserve"
   sodipodi:docname="alexandrie.svg"
   inkscape:export-filename="/home/nlamirault/Downloads/alexandrie.png"
   inkscape:export-xdpi="90"
   inkscape:export-ydpi="90"
   inkscape:version="0.92.1 r"><metadata
     id="metadata43"><rdf:RDF><cc:Work
         rdf:about=""><dc:format>image/svg+xml</dc:format><dc:type
           rdf:resource="http://purl.org/dc/dcmitype/StillImage" /></cc:Work></rdf:RDF></metadata><defs
     id="defs41" /><sodipodi:namedview
     pagecolor="#ffffff"
     bordercolor="#666666"
     borderopacity="1"
     objecttolerance="10"
     gridtolerance="10"
     guidetolerance="10"
     inkscape:pageopacity="0"
     inkscape:pageshadow="2"
     inkscape:window-width="1916"
     inkscape:window-height="1002"
     id="namedview39"
     showgrid="false"
     inkscape:zoom="0.15733333"
     inkscape:cx="-492.58475"
     inkscape:cy="750"
     inkscape:window-x="1680"
     inkscape:window-y="46"
     inkscape:window-maximized="0"
     inkscape:current-layer="Layer_1" /><g
     id="g36"><path
       fill="#D36149"
       d="M468.5,729H259.7c0.7,15,1.2,15.6,1.2,20.6c0,6.3-0.7,9.4-1.7,24.4h209.4l-9.5-22.5L468.5,729z"
       id="path2" /><path
       fill="#0081C3"
       d="M259.7,735.5c-7.1-49.6-49.7-87.8-101.3-87.8C101.9,647.7,56,693.5,56,750.1c0,56.6,45.9,102.4,102.4,102.4   c50.3,0,92-36.3,100.7-84.1c1.1-6,1.7-12.1,1.7-18.4C260.8,745.1,260.4,740.3,259.7,735.5z M113.4,790.6   c-22.4,0-40.6-18.2-40.6-40.5c0-22.4,18.2-40.5,40.6-40.5c22.4,0,40.5,18.2,40.5,40.5C153.9,772.5,135.7,790.6,113.4,790.6z"
       id="path4" /><path
       fill="#FFFFFF"
       d="M113.4,709.5c-22.4,0-40.6,18.2-40.6,40.5c0,22.4,18.2,40.5,40.6,40.5c22.4,0,40.5-18.2,40.5-40.5   C153.9,727.7,135.7,709.5,113.4,709.5z"
       id="path6" /><path
       fill="#D36149"
       d="M1342.1,644.4c-51.6,0-94.2,39.6-101.3,84.6h-208.8l9.5,22.5L1032,774h209.4c8.7,45,50.4,81.3,100.7,81.3   c56.6,0,102.4-48.9,102.4-105.4C1444.5,693.3,1398.7,644.4,1342.1,644.4z M1387.2,790.6c-22.4,0-40.5-18.2-40.5-40.5   c0-22.4,18.2-40.5,40.5-40.5c22.4,0,40.6,18.2,40.6,40.5C1427.7,772.5,1409.6,790.6,1387.2,790.6z"
       id="path8" /><path
       fill="#FFFFFF"
       d="M1387.2,709.5c-22.4,0-40.5,18.2-40.5,40.5c0,22.4,18.2,40.5,40.5,40.5c22.4,0,40.6-18.2,40.6-40.5   C1427.7,727.7,1409.6,709.5,1387.2,709.5z"
       id="path10" /><path
       fill="#D36149"
       d="M623.1,504L518.3,319.7c39.5-30.9,51.4-87.9,25.6-132.6c-28.2-49-90.8-66.5-139.8-38.3   c-49,28.2-65.9,90.6-37.7,139.6c25.1,43.6,77.3,61.5,123.1,45.2l105.4,185.3l9.8-14.8H623.1z M452.9,233.1   c-19.4,11.2-44.2,4.5-55.4-14.9c-11.2-19.4-4.5-44.2,14.9-55.4c19.4-11.2,44.2-4.5,55.4,15C479,197.2,472.4,222,452.9,233.1z"
       id="path12" /><path
       fill="#FFFFFF"
       d="M467.9,177.8c-11.2-19.4-36-26.1-55.4-15c-19.4,11.2-26.1,36-14.9,55.4c11.2,19.4,36,26.1,55.4,14.9   C472.4,222,479,197.2,467.9,177.8z"
       id="path14" /><path
       fill="#D36149"
       d="M875.3,999l104,183.4c4.6-3.9,9.6-6.2,15-9.3c4.3-2.5,8.7-3.8,13.2-5.6L904.6,986.3l-8.7,12.7H875.3z"
       id="path16" /><path
       fill="#0081C3"
       d="M979.3,1185c-37.1,31.3-47.8,85.6-22.7,129.2c28.2,49,90.8,65.9,139.8,37.7c49-28.2,65.9-90.8,37.7-139.8   c-25.7-44.7-80.1-62.6-126.6-44c-4.5,1.8-8.9,3.8-13.2,6.3C988.9,1177.5,983.9,1181.1,979.3,1185z M1047.6,1267   c19.4-11.2,44.2-4.5,55.4,14.9c11.2,19.4,4.5,44.2-14.9,55.4c-19.4,11.2-44.2,4.5-55.4-15C1021.5,1303,1028.2,1278.2,1047.6,1267z"
       id="path18" /><path
       fill="#FFFFFF"
       d="M1032.6,1322.4c11.2,19.4,36,26.1,55.4,15c19.4-11.2,26.1-36,14.9-55.4c-11.2-19.4-36-26.1-55.4-14.9   C1028.2,1278.2,1021.5,1303,1032.6,1322.4z"
       id="path20" /><path
       fill="#D36149"
       d="M904.1,516.1l104.9-181.9c-4.5-1.8-8.9-4.4-13.2-6.9c-5.4-3.1-10.4-4.9-15-8.8L874.4,504h21.6L904.1,516.1z   "
       id="path22" /><path
       fill="#0081C3"
       d="M1009.1,333.1c46.5,18.8,100.9,1.1,126.8-43.5c28.4-48.9,11.7-111.6-37.2-140   c-48.9-28.4-111.6-11.7-140,37.2c-25.2,43.5-14.8,97.8,22.2,129.3c4.6,3.9,9.6,7.6,15,10.7C1000.2,329.2,1004.6,331.3,1009.1,333.1   z M1034.8,178.9c11.2-19.4,36.1-26,55.4-14.7c19.4,11.2,25.9,36.1,14.7,55.4c-11.2,19.4-36.1,26-55.4,14.7   C1030.2,223,1023.6,198.2,1034.8,178.9z"
       id="path24" /><path
       fill="#FFFFFF"
       d="M1049.6,234.3c19.4,11.2,44.2,4.7,55.4-14.7c11.2-19.4,4.7-44.2-14.7-55.4c-19.4-11.2-44.2-4.6-55.4,14.7   C1023.6,198.2,1030.2,223,1049.6,234.3z"
       id="path26" /><path
       fill="#D36149"
       d="M593.1,981.7l-105.2,182.7c-45.7-16.5-98,2-123.3,45.5c-28.4,48.9-11.7,111.9,37.2,140.3   c48.9,28.4,111.6,11.9,140-37c25.9-44.6,14.2-103.1-25.2-134.2l103-180h-15L593.1,981.7z M465.7,1321.3   c-11.2,19.4-36.1,26-55.4,14.7c-19.4-11.2-26-36.1-14.7-55.4c11.2-19.4,36.1-26,55.4-14.7C470.3,1277.2,476.9,1302,465.7,1321.3z"
       id="path28" /><path
       fill="#FFFFFF"
       d="M451,1265.9c-19.4-11.2-44.2-4.7-55.4,14.7c-11.2,19.4-4.7,44.2,14.7,55.4c19.4,11.2,44.2,4.7,55.4-14.7   C476.9,1302,470.3,1277.2,451,1265.9z"
       id="path30" /><path
       fill="#B2B4B6"
       d="M1032.1,735.5l-66.2-114.6l97.4-63.8l-12.4-18.9l-96.4,63.1l-50.4-85.2l-8.2-12.1h-21.6H762.9l1-120.4   l-22.6,0.9l-1,119.5H623.1h-18.5l-9.8,14.8l-50.4,86.2l-98.1-63.6l-12.2,18.7l99,63.5l-64.7,112L459,752l9.5,16.5l63.3,109.7   l-96,62.9l12.4,18.9l94.9-62.2l50,84l11.5,17.3h15h116.5l-0.9,114.9l22.6-1.1l0.9-113.8h116.5h20.6l8.7-12.4l53.6-91.5l94.6,61.4   l12.2-18.7l-95.5-61.2l62.6-108.3l9.5-16.4L1032.1,735.5z M776,764.1v130.5c0,16.2-13.8,29.3-30,29.3c-16.2,0-30-13.1-30-29.3   V764.1c-15-11.3-41.4-37-41.4-67c0-40.4,34-73.1,74.4-73.1c40.4,0,72,32.8,72,73.1C821,727.1,806,752.8,776,764.1z"
       id="path32" /><path
       fill="#FFFFFF"
       d="M750.3,624c-40.4,0-75.6,32.8-75.6,73.1c0,30,26.4,55.7,41.4,67v130.5c0,16.2,13.8,29.3,30,29.3   c16.2,0,30-13.1,30-29.3V764.1c30-11.3,45.6-37,45.6-67C821.6,656.7,790.7,624,750.3,624z"
       id="path34" /></g></svg>